REM MD5 d042f0896ec8469f311739a78c96f85a
FILE "UEFA Champions League - Season 2000-2001 (Germany).bin" BINARY
  TRACK 01 MODE2/2352
    INDEX 01 00:00:00
  TRACK 02 AUDIO
    INDEX 00 35:05:60
    INDEX 01 35:07:60
  TRACK 03 AUDIO
    INDEX 00 38:51:25
    INDEX 01 38:53:25
  TRACK 04 AUDIO
    INDEX 00 42:28:33
    INDEX 01 42:30:33
REM LEADOUT 46:05:41
